Coordinates
version=1
nRows=20
nColumns=34
inDegrees=yes

Units are S.I. units (second, meters, Newtons, ...)
If the header above contains a line with 'inDegrees', this indicates whether rotational values are in degrees (yes) or radians (no).

endheader
time	pelvis_tilt	pelvis_list	pelvis_rotation	pelvis_tx	pelvis_ty	pelvis_tz	hip_flexion_r	hip_adduction_r	hip_rotation_r	knee_angle_r	ankle_angle_r	subtalar_angle_r	mtp_angle_r	hip_flexion_l	hip_adduction_l	hip_rotation_l	knee_angle_l	ankle_angle_l	subtalar_angle_l	mtp_angle_l	lumbar_extension	lumbar_bending	lumbar_rotation	arm_flex_r	arm_add_r	arm_rot_r	elbow_flex_r	pro_sup_r	arm_flex_l	arm_add_l	arm_rot_l	elbow_flex_l	pro_sup_l
      0.98333330	      7.84753095	      0.41067369	    -25.06302957	      0.33265546	      1.00639784	      0.15480072	     -7.77493342	     -7.37739223	    -21.11530652	      0.00000000	     10.75708600	      3.22282901	      0.00000000	     -2.79364843	     -2.17736821	    -19.04788628	      3.40099090	     12.94270765	      4.61692178	      0.00000000	     -9.17410177	     -0.39300187	      1.41719456	     12.77885594	    -21.28646553	     46.66234178	     64.23172932	    107.56668467	     11.63567886	    -19.77331588	     44.14394188	     63.47584395	    109.72226623
      1.00000000	      7.97066851	      0.28440157	    -25.03311365	      0.33284779	      1.00631147	      0.15499207	     -8.00011421	     -7.30382686	    -21.08822974	      0.00000000	     10.98319804	      3.33306036	      0.00000000	     -2.91908582	     -2.27310090	    -18.92269056	      3.55493914	     13.18638550	      4.28321047	      0.00000000	     -9.32675207	     -0.29363741	      1.44334493	     12.67098360	    -21.00437031	     46.36166113	     63.45671771	    107.78854442	     11.32954295	    -19.79327915	     43.64664632	     62.85125947	    109.88166816
      1.01666670	      8.00011931	      0.27473480	    -25.02818914	      0.33290613	      1.00599852	      0.15500353	     -8.03461529	     -7.32584274	    -21.08584462	      0.00000000	     10.99807667	      3.33170005	      0.00000000	     -2.91243475	     -2.27799031	    -18.88230460	      3.63465303	     13.18140197	      4.26701494	      0.00000000	     -9.42800998	     -0.24122449	      1.49064333	     12.53459387	    -21.07350089	     46.36938699	     63.31274325	    107.81257375	     11.12918637	    -20.04855147	     43.61238797	     62.62003446	    109.89596488
      1.03333330	      8.16857417	      0.18835272	    -24.85876507	      0.33297977	      1.00598213	      0.15517229	     -8.31886943	     -7.28315475	    -20.99442610	      0.00000000	     11.18667732	      3.31348781	      0.00000000	     -2.92539719	     -2.37013758	    -18.75470102	      4.00769643	     13.40983674	      3.98709361	      0.00000000	     -9.57645466	     -0.20114821	      1.40427011	     12.58541376	    -20.61648527	     46.16713291	     62.17787746	    108.01155852	     10.99012200	    -19.94783175	     43.26838940	     61.40884365	    110.03501181
      1.05000000	      8.17446025	      0.16921349	    -24.74685827	      0.33238333	      1.00569909	      0.15506188	     -8.32263100	     -7.24635540	    -20.97247109	      0.00000000	     11.15365465	      3.25337644	      0.00000000	     -2.71894302	     -2.47186154	    -18.58761912	      4.33291225	     13.46287071	      3.83978629	      0.00000000	     -9.70159591	     -0.16308692	      1.30176877	     12.68657389	    -20.27642214	     45.99524412	     61.15413383	    108.24567860	     10.92134052	    -19.90466740	     42.98820996	     60.28407522	    110.20494644
      1.06666670	      8.13728557	      0.18115069	    -24.64868751	      0.33122922	      1.00536751	      0.15467685	     -8.23200787	     -7.21699504	    -20.93335588	      0.00000000	     11.16858069	      3.11111872	      0.00000000	     -2.42477981	     -2.55858653	    -18.47912159	      4.64629255	     13.52550619	      3.69355396	      0.00000000	     -9.90352129	     -0.15224452	      1.16690655	     12.90884123	    -19.86746146	     45.78866311	     59.85193780	    108.46682459	     10.96360207	    -19.76797384	     42.73491781	     58.75512435	    110.36888442
      1.08333330	      7.66231202	      0.24415009	    -24.40820400	      0.32931917	      1.00434870	      0.15389276	     -7.61652989	     -6.98336900	    -19.39529346	      0.00000000	     10.12777479	      0.33616778	      0.00000000	     -1.41662815	     -2.82719820	    -17.56867620	      5.26846564	     13.51386640	      2.60473094	      0.00000000	     -9.73293693	      0.00134672	      0.82887769	     13.26573152	    -19.30437995	     45.23348419	     57.99688705	    113.72447298	     10.91943788	    -19.54256339	     41.94258649	     56.85434460	    114.67213115
      1.10000000	      7.66637326	      0.27720947	    -24.39528291	      0.32739164	      1.00407774	      0.15340569	     -7.49186640	     -6.99200799	    -19.28770956	      0.00000000	     10.45807618	      0.44837289	      0.00000000	     -1.24602323	     -2.82732708	    -17.61827596	      5.30737610	     13.42223741	      2.63104055	      0.00000000	    -10.01432276	     -0.10919561	      0.81850265	     13.65152516	    -18.81253381	     45.06698272	     56.21968141	    113.82386901	     11.26838620	    -19.16319955	     41.82751587	     54.55130879	    114.74464456
      1.11666670	      7.57567908	      0.24887818	    -24.41248166	      0.32525365	      1.00380990	      0.15313693	     -7.24704715	     -6.88137784	    -19.25174926	      0.03686482	     10.39741543	      0.44760039	      0.00000000	     -0.95042074	     -2.96346744	    -17.63034488	      5.46528736	     13.44161491	      2.53670130	      0.00000000	    -10.25938259	     -0.16242531	      0.81665011	     14.12537503	    -18.16359132	     44.95687673	     54.01376870	    113.93137096	     11.67011812	    -18.76313167	     41.89545722	     51.97422489	    114.83509112
      1.13333330	      7.43048975	      0.15432256	    -24.40207923	      0.32301852	      1.00363829	      0.15293001	     -6.90518870	     -6.69587408	    -19.17530770	      0.23321149	     10.37356235	      0.30109289	      0.00000000	     -0.61652836	     -3.19284999	    -17.58592806	      5.63108248	     13.35070532	      2.41184424	      0.00000000	    -10.46673086	     -0.14471827	      0.81556405	     14.64143954	    -17.48696524	     44.88137289	     51.29022978	    114.05828310	     12.14477081	    -18.27308784	     42.10885098	     49.03194848	    114.95295307
      1.15000000	      6.88340144	      0.23169108	    -24.47266394	      0.32062828	      1.00282871	      0.15262912	     -5.96316452	     -6.52377314	    -18.98958660	      0.56438941	     10.19520815	     -0.07254204	      0.00000000	      0.25280870	     -3.43869256	    -17.38485882	      5.90068320	     13.16167801	      1.96659925	      0.00000000	    -10.13961634	     -0.14111467	      0.97167311	     15.04611656	    -16.79784605	     44.81601413	     48.24369852	    114.48204438	     12.69164419	    -17.70075000	     42.63469914	     45.71143528	    115.33200483
      1.16666670	      6.77172851	      0.09847618	    -24.57849620	      0.31812707	      1.00266499	      0.15217992	     -5.57390678	     -6.34534048	    -18.79657928	      0.83959922	     10.24607084	     -0.34247046	      0.00000000	      0.55849164	     -3.66463659	    -17.15852706	      6.11294154	     13.11616962	      1.58814849	      0.00000000	    -10.45250793	     -0.07605144	      1.03706007	     15.51558438	    -15.96822644	     44.14459800	     44.97546896	    114.67748042	     13.14563986	    -17.01224186	     42.47659156	     42.57300092	    115.50622433
      1.18333330	      6.73070453	     -0.08949738	    -24.61210361	      0.31603230	      1.00262540	      0.15208955	     -5.27561434	     -6.14518470	    -18.59839508	      1.27207675	     10.49696125	     -0.61634886	      0.00000000	      0.76804123	     -3.95513128	    -17.00372780	      6.38129806	     13.17193382	      1.16574782	      0.00000000	    -10.81293762	     -0.04495033	      1.07315640	     15.91426360	    -15.21429751	     43.50778127	     41.75582312	    114.78343724	     13.53581164	    -16.41027521	     42.20492511	     39.49228070	    115.59731161
      1.20000000	      6.54415804	     -0.18271401	    -24.68883274	      0.31404681	      1.00248768	      0.15199428	     -4.81636337	     -5.98055779	    -18.51467441	      1.60735180	     10.37750089	     -0.80343968	      0.00000000	      1.12125462	     -4.18523284	    -16.79911399	      6.56366204	     12.99076752	      0.80126695	      0.00000000	    -10.92630650	     -0.02822101	      1.30497230	     16.27922604	    -14.55682746	     42.88260683	     38.33130927	    114.90540503	     13.95165045	    -15.77326895	     41.87720900	     36.30023771	    115.68887133
      1.21666670	      6.35678116	     -0.26671275	    -24.72767662	      0.31228209	      1.00217199	      0.15184236	     -4.38842245	     -5.81976914	    -18.36725449	      1.91681348	     10.47156689	     -1.00888788	      0.00000000	      1.46798933	     -4.40204608	    -16.58479154	      6.74312614	     12.91685625	      0.39188475	      0.00000000	    -10.95987617	     -0.00083455	      1.47606907	     16.54379097	    -13.98478155	     42.15054484	     35.15269082	    115.02790288	     14.22986349	    -15.19720115	     41.40477253	     33.25526414	    115.76984052
      1.23333330	      6.20573237	     -0.34100830	    -24.75520755	      0.31071844	      1.00195494	      0.15175458	     -3.98412933	     -5.70170962	    -18.30357257	      2.26326218	     10.42055769	     -1.19201832	      0.00000000	      1.77571979	     -4.58701435	    -16.39197463	      6.91687476	     12.76659089	      0.03045917	      0.00000000	    -11.01537966	      0.00615024	      1.66829574	     16.75714597	    -13.47225622	     41.16282433	     32.07255938	    115.11655020	     14.45556611	    -14.64561036	     40.64667289	     30.36330729	    115.79891485
      1.25000000	      6.06172372	     -0.39258500	    -24.79913774	      0.30966036	      1.00176861	      0.15197773	     -3.65728535	     -5.60087539	    -18.19812322	      2.55640038	     10.45911233	     -1.32940484	      0.00000000	      2.04224463	     -4.75763128	    -16.24113006	      7.09990341	     12.70451339	     -0.32937989	      0.00000000	    -11.01115938	      0.01372034	      1.83657401	     16.86772513	    -13.06065218	     40.00126188	     29.33645128	    115.19348204	     14.53635430	    -14.24843177	     39.70871815	     27.88428021	    115.80100821
      1.26666670	      5.90214216	     -0.40094220	    -24.85093262	      0.30904053	      1.00168741	      0.15239000	     -3.43254483	     -5.49803682	    -18.15761307	      2.61566099	     10.37034881	     -1.34479195	      0.00000000	      2.25212811	     -4.87120885	    -16.18008560	      7.15545088	     12.58398769	     -0.55540726	      0.00000000	    -10.88272276	      0.01207966	      2.01800152	     16.84957776	    -12.77314267	     38.64494520	     26.92879033	    115.22871149	     14.45961320	    -13.98471437	     38.56519068	     25.80053214	    115.74629163
      1.28333330	      5.78405758	     -0.40830537	    -24.89618067	      0.30826468	      1.00172681	      0.15262534	     -3.19801573	     -5.43512837	    -18.13205407	      2.74861274	     10.28246979	     -1.34223088	      0.00000000	      2.43744601	     -4.97535711	    -16.16082849	      7.23556050	     12.45359880	     -0.67623280	      0.00000000	    -10.80205325	      0.02181892	      2.07717351	     16.76495743	    -12.62439056	     37.06338944	     25.00640799	    115.24277865	     14.24468341	    -13.86464637	     37.20887200	     24.17294472	    115.64429285
      1.30000000	      5.51585091	     -0.28729580	    -24.91824672	      0.30791022	      1.00145690	      0.15305021	     -2.82830749	     -5.41311410	    -18.11542656	      2.80569507	     10.22696998	     -1.33221086	      0.00000000	      2.81846708	     -5.03987099	    -16.09479202	      7.34189561	     12.40302350	     -0.61685767	      0.00000000	    -10.55375840	     -0.01679594	      2.16428035	     15.83573392	    -12.52885414	     32.00802631	     24.61807443	    115.75132330	     13.24258969	    -13.76690655	     32.48440160	     23.88582038	    115.43902602
